<svg xmlns="http://www.w3.org/2000/svg" version="1.1" xmlns:xlink="http://www.w3.org/1999/xlink" xmlns:svgjs="http://svgjs.dev/svgjs" width="1500" height="1500" viewBox="0 0 1500 1500"><rect width="1500" height="1500" fill="#3f3b37"></rect><g transform="matrix(0.6666666666666666,0,0,0.6666666666666666,249.70210230657932,424.59703103913625)"><svg viewBox="0 0 379 247" data-background-color="#3f3b37" preserveAspectRatio="xMidYMid meet" height="977" width="1500" xmlns="http://www.w3.org/2000/svg" xmlns:xlink="http://www.w3.org/1999/xlink"><g id="tight-bounds" transform="matrix(1,0,0,1,0.1129032258064342,-0.09999999999999432)"><svg viewBox="0 0 378.77419354838713 247.2" height="247.2" width="378.77419354838713"><g><svg viewBox="0 0 378.77419354838713 247.2" height="247.2" width="378.77419354838713"><g><svg viewBox="0 0 378.77419354838713 247.2" height="247.2" width="378.77419354838713"><g id="textblocktransform"><svg viewBox="0 0 378.77419354838713 247.2" height="247.2" width="378.77419354838713" id="textblock"><g><svg viewBox="0 0 378.77419354838713 247.2" height="247.2" width="378.77419354838713"><g transform="matrix(1,0,0,1,0,0)"><svg width="378.77419354838713" viewBox="0.7 -37 57 37.2" height="247.2" data-palette-color="#eee9db"><path d="M22.15-12.35Q22.15-9.55 21.08-7.28 20-5 18.18-3.35 16.35-1.7 13.88-0.8 11.4 0.1 8.55 0.1L8.55 0.1Q6.55 0.1 4.55-0.98 2.55-2.05 0.7-4.4L0.7-4.4 4.4-11.65Q4.75-11 5.45-10.33 6.15-9.65 7.03-9.15 7.9-8.65 8.78-8.33 9.65-8 10.35-8L10.35-8Q10.95-8 11.6-8.2 12.25-8.4 12.8-8.8 13.35-9.2 13.68-9.73 14-10.25 14-10.95L14-10.95Q14-12.15 13.23-13.18 12.45-14.2 11.3-15.13 10.15-16.05 8.8-17 7.45-17.95 6.33-19 5.2-20.05 4.4-21.35 3.6-22.65 3.6-24.25L3.6-24.25Q3.6-26.85 5.15-29.1 6.7-31.35 9.03-32.98 11.35-34.6 14.1-35.55 16.85-36.5 19.3-36.5L19.3-36.5Q20.65-36.5 21.85-36.18 23.05-35.85 23.93-35.13 24.8-34.4 25.33-33.3 25.85-32.2 25.85-30.55L25.85-30.55Q25.85-29.85 25.73-29.15 25.6-28.45 25.5-27.65L25.5-27.65 18.25-25.55Q18.35-25.95 18.43-26.35 18.5-26.75 18.5-27.15L18.5-27.15Q18.5-28.65 17.98-29.33 17.45-30 16.6-30L16.6-30Q16.2-30 15.63-29.7 15.05-29.4 14.48-28.93 13.9-28.45 13.5-27.8 13.1-27.15 13.1-26.4L13.1-26.4Q13.1-25.2 13.78-24.4 14.45-23.6 15.45-22.9 16.45-22.2 17.63-21.48 18.8-20.75 19.8-19.6 20.8-18.45 21.48-16.73 22.15-15 22.15-12.35L22.15-12.35ZM33.95-1.65L23.55 0.2 27.35-35.3Q29.7-35.4 31.77-35.77 33.85-36.15 35.9-36.3L35.9-36.3Q35.9-36.25 35.75-35.27 35.6-34.3 35.35-32.73 35.1-31.15 34.8-29.18 34.5-27.2 33.92-23.75 33.35-20.3 32.4-14.2L32.4-14.2 33.15-14.2Q34.45-18.8 35.3-21.73 36.15-24.65 36.67-26.48 37.2-28.3 37.67-30 38.15-31.7 38.57-33.15 39-34.6 39.25-35.6L39.25-35.6 39.7-35.6Q40.6-35.6 41.52-35.7 42.45-35.8 43.27-35.93 44.1-36.05 45-36.25L45-36.25Q44.9-35.8 44.77-34.4 44.65-33 44.45-31.03 44.25-29.05 44.05-26.68 43.85-24.3 43.65-22.03 43.45-19.75 43.27-17.7 43.1-15.65 42.95-14.2L42.95-14.2 43.85-14.2 48.6-35.7Q50.3-35.95 51.95-36.15L51.95-36.15Q53.4-36.35 54.95-36.55 56.5-36.75 57.7-37L57.7-37Q56.95-34.9 56.2-32.33 55.45-29.75 54.65-26.9 53.85-24.05 53.12-21.15 52.4-18.25 51.7-15.55L51.7-15.55Q50.1-9.15 48.6-2.4L48.6-2.4 37.3-0.5 39.5-19.8 38.9-19.8 33.95-1.65Z" opacity="1" transform="matrix(1,0,0,1,0,0)" fill="#eee9db" class="wordmark-text-0" data-fill-palette-color="primary" id="text-0"></path></svg></g></svg></g></svg></g></svg></g></svg></g><defs></defs></svg><rect width="378.77419354838713" height="247.2" fill="none" stroke="none" visibility="hidden"></rect></g></svg></g></svg>