<svg id="stroke-svg" width="741" height="24236" viewBox="0 0 741 24236" fill="none" xmlns="http://www.w3.org/2000/svg"><path id="svgPath" d="M318.12 1C294.469 86.6044 292.853 201.562 361.499 265C433.999 332 325.999 399.5 349.999 502C393.605 688.232 271.909 720.122 287.499 805C305.499 903 345.556 1008.02 363.592 1090.36C400.235 1257.65 496.208 1550.95 586.95 1385.89C700.378 1179.56 162.719 1293.75 263.155 1449.6C343.504 1574.28 363.592 1823.71 363.592 1932.84C371.254 2023.84 367.089 2204.55 289.139 2199.46C191.7 2193.09 165.717 2104.38 237.172 2066.15C308.626 2027.92 490.012 1961.27 496.508 2234.74C501.704 2453.53 340.106 2548.9 275.647 2598.4C153.391 2685.15 -94.5186 2857.37 45.7923 2946.37C221.181 3057.63 612.934 3032.14 451.036 3343.84C289.139 3655.55 -119.102 3512.93 237.172 3792.29C593.445 4071.65 666.499 3956.5 588.499 3901C477.607 3822.1 389.075 4183.23 334.11 4364.24C279.145 4545.25 362.257 4569.82 215.5 4666.14C123.618 4726.44 69.9907 4491 274.536 4659C479.082 4827 298.499 4900 294.499 4903.5C93.3376 5012.7 788.049 5369.29 550.999 5463C254.687 5580.13 -27.1608 5440.5 168.216 5733.58C363.592 6026.66 829.796 5498.82 533.484 6169.77C296.434 6706.53 215.308 6722.99 177.499 6673C114.872 6542.96 24.117 6340.45 209.999 6496.5C283.286 6578.51 398.469 6764.56 440.043 6855.91C492.01 6970.11 444.534 7197.51 379.581 7322L352.092 7382.28C328.441 7467.89 330.906 7580.77 424.047 7588.62C540.473 7598.42 613.427 7659.19 490.505 7805.73C367.583 7952.27 44.7869 7994.42 323.61 8121.36C546.668 8222.91 406.011 8336.02 424.047 8418.36C460.69 8585.65 556.663 8878.95 647.405 8713.89C760.833 8507.56 223.174 8621.75 323.61 8777.6C403.959 8902.28 424.047 9151.71 424.047 9260.84C431.708 9351.84 427.544 9532.56 349.593 9527.46C252.155 9521.09 226.172 9432.38 297.626 9394.15C369.081 9355.92 550.466 9289.27 556.962 9562.75C562.159 9781.53 400.561 9876.9 336.102 9926.4C213.846 10013.1 47.1881 10184.5 187.499 10273.5C362.888 10384.8 673.389 10360.1 511.491 10671.8C349.594 10983.5 -58.6475 10840.9 297.626 11120.3C653.9 11399.6 837.898 11278.8 678.999 11218C551.88 11169.4 449.53 11511.2 394.565 11692.2C339.6 11873.2 220.575 12215 184.198 12133.8C138.727 12032.4 255.5 11946.5 339.6 11994.1C523.15 12141.7 830.988 12460.1 593.938 12553.8C297.626 12671 33.2938 12768.5 228.67 13061.6C424.047 13354.7 890.25 12826.8 593.938 13497.8C356.889 14034.5 255.308 14054 217.499 14004C154.872 13874 299.499 13851 328.499 13875C401.786 13957 458.924 14092.6 500.498 14183.9C552.465 14298.1 579.491 14670 440.036 14650C300.581 14630 533.459 14545 420.491 14686C307.523 14827 303.148 14942.5 396.289 14950.3C512.715 14960.1 585.669 15020.9 462.747 15167.4C339.825 15314 17.0289 15356.1 295.852 15483.1C518.91 15584.6 378.253 15697.7 396.289 15780.1C432.932 15947.4 528.905 16240.7 619.647 16075.6C733.075 15869.3 195.416 15983.5 295.852 16139.3C376.201 16264 396.289 16513.4 396.289 16622.6C403.951 16713.6 399.786 16894.3 321.836 16889.2C224.397 16882.8 198.414 16794.1 269.868 16755.9C341.323 16717.6 522.709 16651 529.205 16924.5C534.401 17143.2 471.311 17252.5 406.852 17302C284.597 17388.8 36.6881 17543.5 176.999 17632.5C352.388 17743.8 645.631 17704.4 483.733 18016.1C321.836 18327.8 176.259 18455.3 404.328 18501C571.5 18534.5 629.29 18792.8 447.707 18765C219.5 18730 -105.496 18702.7 276.5 18943.5C539 19109 395.346 19197.3 311 19215.5C36 19275 409.241 19487 492 19471C673.158 19436 582.415 20051 673.158 19885.9C786.586 19679.6 248.926 19793.7 349.363 19949.6C429.712 20074.3 449.8 20323.7 449.8 20432.8C457.461 20523.8 453.297 20704.6 375.346 20699.5C277.908 20693.1 251.925 20604.4 323.379 20566.2C394.834 20527.9 576.219 20461.3 582.715 20734.7C587.912 20953.5 426.314 21048.9 361.855 21098.4C239.599 21185.1 -8.31094 21357.4 132 21446.4C307.389 21557.6 699.141 21532.1 537.244 21843.8C375.347 22155.6 -32.8946 22012.9 323.379 22292.3C679.653 22571.6 752.707 22456.5 674.707 22401C563.814 22322.1 475.283 22683.2 420.318 22864.2C365.353 23045.2 448.464 23069.8 301.708 23166.1C209.826 23226.4 156.198 22991 360.744 23159C565.29 23327 384.707 23400 380.707 23403.5C179.545 23512.7 874.256 23869.3 637.207 23963C340.895 24080.1 59.0469 23940.5 254.423 24233.6" stroke="#FF007F" stroke-width="2.5" stroke-linecap="round" stroke-linejoin="round" style="stroke-dasharray: 40630.308594; stroke-dashoffset: 34339.077294;"></path></svg>